<svg xmlns="http://www.w3.org/2000/svg" xmlns:xlink="http://www.w3.org/1999/xlink" width="500" zoomAndPan="magnify" viewBox="0 0 375 374.999991" height="500" preserveAspectRatio="xMidYMid meet" version="1.0"><defs><g/><clipPath id="e5408590c4"><rect x="0" width="84" y="0" height="130"/></clipPath><clipPath id="ac411912be"><path d="M 234 176 L 309 176 L 309 290.160156 L 234 290.160156 Z M 234 176 " clip-rule="nonzero"/></clipPath><clipPath id="eac8e02f5d"><rect x="0" width="75" y="0" height="115"/></clipPath><clipPath id="e7895af68f"><path d="M 270 137 L 328 137 L 328 189 L 270 189 Z M 270 137 " clip-rule="nonzero"/></clipPath><clipPath id="b8b3a4024b"><path d="M 282.085938 127.699219 L 336.539062 152.757812 L 316.699219 195.863281 L 262.246094 170.804688 Z M 282.085938 127.699219 " clip-rule="nonzero"/></clipPath><clipPath id="2a4b2571ea"><path d="M 282.085938 127.699219 L 336.539062 152.757812 L 316.699219 195.863281 L 262.246094 170.804688 Z M 282.085938 127.699219 " clip-rule="nonzero"/></clipPath><clipPath id="ad68723704"><rect x="0" width="338" y="0" height="291"/></clipPath></defs><g transform="matrix(1, 0, 0, 1, 0, 36)"><g clip-path="url(#ad68723704)"><path fill="#ffffff" d="M 130.0625 131.878906 C 117.03125 135.210938 103.082031 141.140625 94.015625 148.824219 C 84.203125 157.136719 80.066406 165.207031 79.320312 172.15625 C 78.535156 179.445312 81.414062 185.644531 85.828125 189.976562 C 103.203125 207.035156 132.253906 206.949219 155.792969 194.441406 C 170.320312 186.71875 181.703125 179.386719 190.554688 172.578125 C 188.050781 179.316406 184.394531 186.046875 179.359375 192.671875 C 159.351562 218.992188 131.351562 232.429688 104.976562 239.121094 C 65.195312 249.207031 29.046875 243.964844 29.046875 243.964844 C 27.785156 243.78125 26.609375 244.65625 26.425781 245.921875 C 26.242188 247.183594 27.121094 248.359375 28.382812 248.542969 C 28.382812 248.542969 65.390625 253.933594 106.113281 243.605469 C 133.40625 236.683594 162.339844 222.710938 183.042969 195.472656 C 190.113281 186.167969 194.625 176.671875 197.125 167.230469 C 202.160156 162.878906 206.136719 158.777344 209.238281 154.972656 C 213.359375 149.910156 215.96875 145.320312 217.488281 141.308594 C 217.792969 141.191406 218.097656 141.0625 218.410156 140.921875 C 225.398438 137.773438 228.558594 130.558594 230.074219 121.332031 C 232.109375 108.921875 231.273438 92.730469 235.738281 79.84375 C 242.765625 59.582031 259.484375 51.757812 271.449219 54.464844 C 272.695312 54.746094 273.933594 53.964844 274.214844 52.71875 C 274.496094 51.472656 273.714844 50.234375 272.46875 49.953125 C 258.832031 46.867188 239.378906 55.226562 231.371094 78.328125 C 226.816406 91.453125 227.582031 107.9375 225.507812 120.582031 C 224.488281 126.796875 222.855469 132.058594 219.082031 135.121094 C 219.933594 128.472656 217.464844 124.027344 214.519531 122.105469 C 212.960938 121.085938 211.21875 120.703125 209.546875 120.941406 C 202.695312 121.933594 200.597656 128.777344 202.65625 134.570312 C 203.847656 137.925781 206.421875 140.8125 210.023438 141.824219 C 210.675781 142.007812 211.367188 142.132812 212.089844 142.183594 C 210.664062 145.167969 208.566406 148.46875 205.648438 152.050781 C 203.714844 154.425781 201.429688 156.914062 198.738281 159.507812 C 201.328125 142.703125 197.96875 126.292969 191.808594 111.695312 C 181.332031 86.882812 162.71875 67.394531 151.796875 60.269531 C 135 49.3125 121.023438 44.730469 110.519531 44.675781 C 103.019531 44.640625 97.179688 46.878906 93.140625 50.710938 C 89.0625 54.578125 86.761719 60.105469 86.546875 66.808594 C 86.246094 76.234375 90.117188 88.121094 98.9375 100.730469 C 107.445312 112.894531 119.066406 123.914062 130.0625 131.878906 Z M 192.96875 164.707031 C 197.34375 146.742188 194.105469 129.027344 187.546875 113.496094 C 177.507812 89.710938 159.734375 70.972656 149.265625 64.144531 C 133.46875 53.835938 120.382812 49.351562 110.496094 49.304688 C 104.402344 49.273438 99.609375 50.953125 96.324219 54.070312 C 93.070312 57.152344 91.34375 61.609375 91.171875 66.960938 C 90.890625 75.621094 94.621094 86.488281 102.730469 98.078125 C 111.816406 111.070312 124.570312 122.78125 136.042969 130.519531 C 141.984375 129.335938 147.523438 128.765625 152.042969 128.886719 C 156.46875 129.007812 159.996094 129.828125 162.191406 131.222656 C 164.160156 132.476562 165.25 134.175781 165.417969 136.261719 C 165.65625 139.214844 164.859375 141.289062 163.488281 142.65625 C 161.605469 144.542969 158.277344 145.21875 153.878906 144.257812 C 148.914062 143.175781 142.308594 140.027344 135.164062 135.386719 C 121.761719 138.265625 106.53125 144.28125 97.007812 152.351562 C 88.414062 159.636719 84.574219 166.5625 83.921875 172.648438 C 83.304688 178.390625 85.59375 183.265625 89.066406 186.675781 C 105.09375 202.410156 131.914062 201.890625 153.621094 190.355469 C 170.964844 181.136719 183.722656 172.519531 192.96875 164.707031 Z M 141.882812 134.183594 C 146.796875 137.019531 151.277344 138.953125 154.867188 139.738281 C 156.273438 140.046875 157.519531 140.167969 158.5625 140.039062 C 159.246094 139.957031 159.824219 139.78125 160.21875 139.386719 C 160.796875 138.808594 160.910156 137.878906 160.808594 136.632812 C 160.734375 135.722656 159.972656 135.183594 158.941406 134.722656 C 157.222656 133.957031 154.808594 133.589844 151.917969 133.511719 C 148.96875 133.433594 145.558594 133.664062 141.882812 134.183594 Z M 213.878906 137.503906 C 214.140625 136.582031 214.324219 135.703125 214.449219 134.859375 C 215.023438 130.945312 214.191406 128.0625 212.640625 126.507812 C 211.917969 125.789062 211.054688 125.398438 210.207031 125.523438 C 207.382812 125.929688 206.363281 128.414062 206.558594 130.886719 C 206.753906 133.390625 208.113281 136.007812 210.503906 137.089844 C 211.476562 137.53125 212.609375 137.691406 213.878906 137.503906 Z M 213.878906 137.503906 " fill-opacity="1" fill-rule="evenodd"/><g transform="matrix(1, 0, 0, 1, 185, 145)"><g clip-path="url(#e5408590c4)"><g fill="#ffffff" fill-opacity="1"><g transform="translate(0.370044, 96.658434)"><g><path d="M 67.3125 0 L 52.703125 -35.015625 C 47.191406 -34.492188 42.648438 -33.367188 39.078125 -31.640625 C 35.503906 -29.921875 32.617188 -27.832031 30.421875 -25.375 C 28.222656 -22.925781 26.457031 -20.363281 25.125 -17.6875 C 23.789062 -15.019531 22.609375 -12.523438 21.578125 -10.203125 C 20.367188 -7.015625 19.050781 -4.363281 17.625 -2.25 C 16.207031 -0.144531 14.035156 0.863281 11.109375 0.78125 C 10.765625 0.6875 10.441406 0.597656 10.140625 0.515625 C 9.835938 0.429688 9.472656 0.21875 9.046875 -0.125 C 5.515625 -1.675781 4.09375 -5.425781 4.78125 -11.375 C 5.125 -14.207031 5.75 -17.410156 6.65625 -20.984375 C 7.5625 -24.566406 8.785156 -28.425781 10.328125 -32.5625 C 12.660156 -38.757812 15.394531 -45.320312 18.53125 -52.25 C 21.675781 -59.1875 24.992188 -66.035156 28.484375 -72.796875 C 31.972656 -79.554688 35.351562 -85.691406 38.625 -91.203125 L 39.53125 -91.203125 L 78.15625 0 Z M 52.328125 -35.921875 L 33.328125 -80.09375 C 29.367188 -72.519531 25.382812 -64.53125 21.375 -56.125 C 17.375 -47.726562 13.992188 -39.785156 11.234375 -32.296875 C 9.679688 -28.160156 8.453125 -24.328125 7.546875 -20.796875 C 6.648438 -17.265625 6.03125 -14.125 5.6875 -11.375 C 5.601562 -8.695312 5.816406 -6.429688 6.328125 -4.578125 C 6.847656 -2.734375 7.882812 -1.550781 9.4375 -1.03125 C 9.863281 -0.945312 10.179688 -0.859375 10.390625 -0.765625 C 10.609375 -0.679688 10.890625 -0.554688 11.234375 -0.390625 C 13.816406 -0.210938 15.753906 -1.113281 17.046875 -3.09375 C 18.335938 -5.082031 19.503906 -7.539062 20.546875 -10.46875 C 21.578125 -12.875 22.78125 -15.429688 24.15625 -18.140625 C 25.53125 -20.859375 27.359375 -23.46875 29.640625 -25.96875 C 31.929688 -28.46875 34.882812 -30.617188 38.5 -32.421875 C 42.113281 -34.234375 46.722656 -35.398438 52.328125 -35.921875 Z M 52.328125 -35.921875 "/></g></g></g></g></g><g clip-path="url(#ac411912be)"><g transform="matrix(1, 0, 0, 1, 234, 176)"><g clip-path="url(#eac8e02f5d)"><g fill="#ffffff" fill-opacity="1"><g transform="translate(0.103897, 84.996006)"><g><path d="M 30.03125 0 L 4 0 L 4 -80.625 L 30.03125 -80.625 C 35.519531 -80.625 40.660156 -79.578125 45.453125 -77.484375 C 50.242188 -75.390625 54.484375 -72.492188 58.171875 -68.796875 C 61.867188 -65.109375 64.765625 -60.828125 66.859375 -55.953125 C 68.953125 -51.085938 70 -45.835938 70 -40.203125 C 70 -34.640625 68.953125 -29.421875 66.859375 -24.546875 C 64.765625 -19.679688 61.867188 -15.398438 58.171875 -11.703125 C 54.484375 -8.015625 50.242188 -5.140625 45.453125 -3.078125 C 40.660156 -1.023438 35.519531 0 30.03125 0 Z M 12.90625 -79.828125 L 12.90625 -0.90625 L 30.03125 -0.90625 C 34.375 -0.90625 38.445312 -1.914062 42.25 -3.9375 C 46.0625 -5.957031 49.410156 -8.773438 52.296875 -12.390625 C 55.191406 -16.003906 57.457031 -20.171875 59.09375 -24.890625 C 60.738281 -29.617188 61.5625 -34.722656 61.5625 -40.203125 C 61.5625 -45.679688 60.738281 -50.800781 59.09375 -55.5625 C 57.457031 -60.320312 55.191406 -64.523438 52.296875 -68.171875 C 49.410156 -71.828125 46.0625 -74.679688 42.25 -76.734375 C 38.445312 -78.796875 34.375 -79.828125 30.03125 -79.828125 Z M 12.90625 -79.828125 "/></g></g></g></g></g></g><g clip-path="url(#e7895af68f)"><g clip-path="url(#b8b3a4024b)"><g clip-path="url(#2a4b2571ea)"><path fill="#ffffff" d="M 287.085938 145.230469 C 285.667969 144.703125 282.101562 143.621094 278.566406 144.507812 C 275.921875 145.171875 273.269531 146.882812 271.511719 150.675781 C 269.804688 154.355469 270.382812 157.425781 271.75 159.832031 C 273.300781 162.554688 275.957031 164.382812 277.398438 165.230469 C 277.230469 166.382812 276.84375 167.761719 276.289062 169.191406 C 275.683594 170.746094 274.871094 172.363281 273.878906 173.832031 L 272.234375 176.265625 L 275.175781 176.28125 C 278.378906 176.28125 283.785156 177.546875 288.945312 179.992188 C 290.242188 180.609375 291.515625 181.304688 292.761719 182.042969 C 293.597656 182.535156 294.417969 183.03125 295.222656 183.5625 C 296.253906 184.246094 297.230469 184.941406 298.167969 185.714844 C 299.160156 186.535156 300.074219 187.332031 300.902344 188.292969 C 300.46875 187.109375 299.957031 186.015625 299.273438 184.941406 C 298.597656 183.875 297.800781 182.917969 296.914062 181.996094 C 296.214844 181.265625 295.457031 180.601562 294.65625 179.976562 C 294.128906 179.566406 293.570312 179.1875 293.003906 178.828125 C 290.851562 177.464844 288.53125 176.394531 286.273438 175.535156 C 283.222656 174.378906 280.257812 173.664062 277.832031 173.34375 C 278.367188 172.34375 278.832031 171.328125 279.21875 170.328125 C 280.082031 168.105469 280.5625 165.980469 280.621094 164.40625 L 280.660156 163.359375 L 279.710938 162.921875 C 279.710938 162.921875 276.195312 161.328125 274.445312 158.289062 C 273.492188 156.628906 273.121094 154.507812 274.285156 151.953125 C 275.539062 149.207031 277.402344 147.910156 279.308594 147.417969 C 281.949219 146.734375 284.621094 147.464844 285.832031 147.890625 C 285.6875 148.289062 285.5625 148.695312 285.453125 149.097656 C 284.589844 152.328125 284.859375 155.539062 286.355469 157.753906 C 285.371094 155.457031 285.714844 152.496094 286.996094 149.644531 C 288.039062 147.316406 289.757812 145.121094 292.015625 143.507812 C 293.242188 142.632812 294.628906 141.964844 296.164062 141.53125 C 299.140625 140.691406 302.683594 140.855469 306.710938 142.765625 C 311.082031 144.8125 313.402344 147.488281 314.511719 150.191406 C 316.691406 155.519531 314.253906 160.820312 314.253906 160.820312 L 313.445312 162.578125 L 315.285156 163.171875 C 315.285156 163.171875 320.128906 164.695312 322.71875 168.1875 C 324.164062 170.132812 324.808594 172.742188 323.28125 176.09375 C 321.835938 179.300781 319.84375 180.621094 317.796875 180.910156 C 316.113281 181.148438 314.449219 180.730469 313.097656 180.253906 C 311.804688 179.800781 310.78125 179.285156 310.3125 179.035156 C 310.429688 178.96875 310.542969 178.898438 310.652344 178.824219 C 311.253906 178.425781 311.800781 177.945312 312.273438 177.382812 C 312.617188 176.972656 312.925781 176.550781 313.179688 176.0625 C 313.714844 175.03125 314.035156 173.921875 314.144531 172.621094 C 313.820312 173.230469 313.457031 173.730469 313.054688 174.226562 C 312.453125 174.976562 311.773438 175.539062 311.039062 176.0625 C 310.5625 176.398438 310.058594 176.671875 309.546875 176.933594 C 309.207031 177.109375 308.863281 177.265625 308.519531 177.421875 C 307.625 177.832031 306.71875 178.179688 305.75 178.363281 C 304.195312 178.65625 302.628906 178.703125 301.070312 178.273438 C 302.519531 179.25 304.136719 179.820312 305.84375 179.957031 C 306.445312 180.007812 307.042969 179.980469 307.640625 179.902344 C 306.988281 180.757812 306.429688 181.6875 305.976562 182.71875 C 305.15625 184.589844 304.648438 186.640625 304.183594 188.800781 C 305.1875 186.90625 306.246094 185.167969 307.460938 183.601562 C 308.035156 182.855469 308.644531 182.175781 309.3125 181.574219 C 309.929688 181.992188 310.863281 182.558594 312.011719 183.050781 C 313.753906 183.796875 315.972656 184.300781 318.203125 184.035156 C 321.128906 183.691406 324.148438 182.015625 326.28125 177.472656 C 327.996094 173.792969 327.761719 170.726562 326.648438 168.234375 C 324.828125 164.160156 320.394531 161.671875 317.976562 160.570312 C 318.703125 158.171875 319.601562 153.535156 317.6875 148.886719 C 316.316406 145.5625 313.527344 142.195312 308.136719 139.699219 C 304.015625 137.804688 300.289062 137.386719 297.085938 137.984375 C 296.046875 138.179688 295.054688 138.476562 294.132812 138.875 C 292.695312 139.5 291.398438 140.332031 290.28125 141.335938 C 289.003906 142.476562 287.929688 143.808594 287.085938 145.230469 Z M 287.085938 145.230469 " fill-opacity="1" fill-rule="evenodd"/></g></g></g></g></g></svg>