<svg xmlns="http://www.w3.org/2000/svg" xmlns:xlink="http://www.w3.org/1999/xlink" width="485" zoomAndPan="magnify" viewBox="0 0 363.75 95.249998" height="127" preserveAspectRatio="xMidYMid meet" version="1.0"><defs><g/><clipPath id="8476a5cd86"><rect x="0" width="271" y="0" height="51"/></clipPath><clipPath id="0af50b0a38"><rect x="0" width="18" y="0" height="26"/></clipPath><clipPath id="ea8b758b57"><rect x="0" width="17" y="0" height="24"/></clipPath><clipPath id="4550df3cfc"><path d="M 343 38 L 360 38 L 360 53 L 343 53 Z M 343 38 " clip-rule="nonzero"/></clipPath><clipPath id="e0a42c5a10"><path d="M 346.367188 35.542969 L 361.914062 42.699219 L 356.316406 54.867188 L 340.769531 47.710938 Z M 346.367188 35.542969 " clip-rule="nonzero"/></clipPath><clipPath id="81f31d0cd9"><path d="M 346.367188 35.542969 L 361.914062 42.699219 L 356.316406 54.867188 L 340.769531 47.710938 Z M 346.367188 35.542969 " clip-rule="nonzero"/></clipPath></defs><g transform="matrix(1, 0, 0, 1, 9, 28)"><g clip-path="url(#8476a5cd86)"><g fill="#ffffff" fill-opacity="1"><g transform="translate(0.839353, 39.682845)"><g><path d="M 36.515625 -35.359375 L 42.375 -35.359375 C 42.71875 -35.359375 42.976562 -35.234375 43.15625 -34.984375 C 43.34375 -34.734375 43.40625 -34.457031 43.34375 -34.15625 C 43.101562 -33.007812 42.710938 -31.046875 42.171875 -28.265625 C 41.640625 -25.484375 40.984375 -21.957031 40.203125 -17.6875 C 39.429688 -13.164062 38.828125 -9.484375 38.390625 -6.640625 C 37.953125 -3.796875 37.648438 -1.867188 37.484375 -0.859375 C 37.410156 -0.285156 37.085938 0 36.515625 0 L 27.984375 0 C 27.410156 0 27.09375 -0.285156 27.03125 -0.859375 C 26.894531 -1.898438 26.628906 -3.832031 26.234375 -6.65625 C 25.847656 -9.488281 25.285156 -13.164062 24.546875 -17.6875 C 24.316406 -19.164062 24.09375 -20.5625 23.875 -21.875 C 23.65625 -23.1875 23.441406 -24.414062 23.234375 -25.5625 C 23.203125 -25.800781 23.066406 -25.921875 22.828125 -25.921875 C 22.597656 -25.921875 22.460938 -25.800781 22.421875 -25.5625 C 22.222656 -24.414062 22.015625 -23.1875 21.796875 -21.875 C 21.578125 -20.5625 21.347656 -19.164062 21.109375 -17.6875 C 20.367188 -13.164062 19.804688 -9.488281 19.421875 -6.65625 C 19.035156 -3.832031 18.773438 -1.898438 18.640625 -0.859375 C 18.578125 -0.285156 18.257812 0 17.6875 0 L 9.140625 0 C 8.566406 0 8.234375 -0.285156 8.140625 -0.859375 C 8.003906 -1.867188 7.71875 -3.796875 7.28125 -6.640625 C 6.84375 -9.484375 6.234375 -13.164062 5.453125 -17.6875 C 4.679688 -21.957031 4.023438 -25.484375 3.484375 -28.265625 C 2.941406 -31.046875 2.535156 -33.007812 2.265625 -34.15625 C 2.203125 -34.457031 2.269531 -34.734375 2.46875 -34.984375 C 2.675781 -35.234375 2.945312 -35.359375 3.28125 -35.359375 L 9.140625 -35.359375 C 9.710938 -35.359375 10.035156 -35.070312 10.109375 -34.5 C 10.273438 -33.457031 10.566406 -31.515625 10.984375 -28.671875 C 11.410156 -25.828125 12.023438 -22.164062 12.828125 -17.6875 C 12.992188 -16.675781 13.160156 -15.722656 13.328125 -14.828125 C 13.503906 -13.929688 13.660156 -13.082031 13.796875 -12.28125 C 13.859375 -12.039062 14 -11.921875 14.21875 -11.921875 C 14.4375 -11.921875 14.582031 -12.039062 14.65625 -12.28125 C 14.789062 -13.082031 14.929688 -13.9375 15.078125 -14.84375 C 15.234375 -15.757812 15.378906 -16.707031 15.515625 -17.6875 C 16.253906 -22.164062 16.816406 -25.828125 17.203125 -28.671875 C 17.585938 -31.515625 17.847656 -33.457031 17.984375 -34.5 C 18.046875 -35.070312 18.382812 -35.359375 19 -35.359375 L 26.671875 -35.359375 C 27.273438 -35.359375 27.613281 -35.070312 27.6875 -34.5 C 27.820312 -33.457031 28.082031 -31.515625 28.46875 -28.671875 C 28.851562 -25.828125 29.414062 -22.164062 30.15625 -17.6875 C 30.289062 -16.707031 30.429688 -15.757812 30.578125 -14.84375 C 30.734375 -13.9375 30.878906 -13.082031 31.015625 -12.28125 C 31.046875 -12.039062 31.179688 -11.921875 31.421875 -11.921875 C 31.660156 -11.921875 31.8125 -12.039062 31.875 -12.28125 C 32.007812 -13.082031 32.160156 -13.929688 32.328125 -14.828125 C 32.492188 -15.722656 32.660156 -16.675781 32.828125 -17.6875 C 33.609375 -22.195312 34.21875 -25.863281 34.65625 -28.6875 C 35.09375 -31.519531 35.394531 -33.457031 35.5625 -34.5 C 35.625 -35.070312 35.941406 -35.359375 36.515625 -35.359375 Z M 36.515625 -35.359375 "/></g></g></g><g fill="#ffffff" fill-opacity="1"><g transform="translate(43.528074, 39.682845)"><g><path d="M 24.203125 0 C 23.628906 0 23.289062 -0.269531 23.1875 -0.8125 C 23.113281 -1.28125 22.992188 -1.953125 22.828125 -2.828125 C 22.660156 -3.703125 22.460938 -4.78125 22.234375 -6.0625 C 22.128906 -6.601562 21.804688 -6.875 21.265625 -6.875 L 12.125 -6.875 C 11.582031 -6.875 11.242188 -6.601562 11.109375 -6.0625 C 10.878906 -4.78125 10.6875 -3.703125 10.53125 -2.828125 C 10.382812 -1.953125 10.257812 -1.28125 10.15625 -0.8125 C 10.082031 -0.269531 9.757812 0 9.1875 0 L 3.28125 0 C 2.945312 0 2.675781 -0.125 2.46875 -0.375 C 2.269531 -0.625 2.222656 -0.90625 2.328125 -1.21875 C 2.597656 -2.394531 3.050781 -4.367188 3.6875 -7.140625 C 4.320312 -9.921875 5.097656 -13.4375 6.015625 -17.6875 C 6.984375 -22.226562 7.738281 -25.921875 8.28125 -28.765625 C 8.820312 -31.609375 9.175781 -33.535156 9.34375 -34.546875 C 9.445312 -35.085938 9.769531 -35.359375 10.3125 -35.359375 L 23.03125 -35.359375 C 23.601562 -35.359375 23.941406 -35.085938 24.046875 -34.546875 C 24.210938 -33.535156 24.566406 -31.609375 25.109375 -28.765625 C 25.648438 -25.921875 26.390625 -22.226562 27.328125 -17.6875 C 28.234375 -13.4375 29.003906 -9.921875 29.640625 -7.140625 C 30.285156 -4.367188 30.757812 -2.394531 31.0625 -1.21875 C 31.132812 -0.90625 31.066406 -0.625 30.859375 -0.375 C 30.660156 -0.125 30.410156 0 30.109375 0 Z M 13.59375 -12.21875 L 19.796875 -12.21875 C 20.097656 -12.21875 20.347656 -12.335938 20.546875 -12.578125 C 20.753906 -12.816406 20.828125 -13.085938 20.765625 -13.390625 C 20.628906 -14.054688 20.484375 -14.75 20.328125 -15.46875 C 20.179688 -16.195312 20.023438 -16.9375 19.859375 -17.6875 C 19.347656 -20.070312 18.878906 -22.234375 18.453125 -24.171875 C 18.035156 -26.109375 17.660156 -27.785156 17.328125 -29.203125 C 17.253906 -29.535156 17.039062 -29.703125 16.6875 -29.703125 C 16.34375 -29.703125 16.117188 -29.535156 16.015625 -29.203125 C 15.710938 -27.785156 15.34375 -26.109375 14.90625 -24.171875 C 14.46875 -22.234375 13.992188 -20.070312 13.484375 -17.6875 C 13.316406 -16.9375 13.15625 -16.195312 13 -15.46875 C 12.851562 -14.75 12.710938 -14.054688 12.578125 -13.390625 C 12.515625 -13.085938 12.582031 -12.816406 12.78125 -12.578125 C 12.976562 -12.335938 13.25 -12.21875 13.59375 -12.21875 Z M 13.59375 -12.21875 "/></g></g></g><g fill="#ffffff" fill-opacity="1"><g transform="translate(73.940466, 39.682845)"><g><path d="M 25.96875 0 L 19.546875 0 C 19.273438 0 19.039062 -0.0976562 18.84375 -0.296875 C 18.644531 -0.503906 18.546875 -0.742188 18.546875 -1.015625 L 18.546875 -8.796875 C 18.546875 -9.566406 18.425781 -10.320312 18.1875 -11.0625 C 17.945312 -11.800781 17.515625 -12.414062 16.890625 -12.90625 C 16.273438 -13.394531 15.410156 -13.640625 14.296875 -13.640625 L 11.15625 -13.640625 C 10.894531 -13.640625 10.660156 -13.535156 10.453125 -13.328125 C 10.253906 -13.128906 10.171875 -12.894531 10.203125 -12.625 C 10.203125 -9.664062 10.226562 -7.207031 10.28125 -5.25 C 10.332031 -3.300781 10.375 -1.890625 10.40625 -1.015625 C 10.40625 -0.742188 10.3125 -0.503906 10.125 -0.296875 C 9.9375 -0.0976562 9.691406 0 9.390625 0 L 3.53125 0 C 3.226562 0 2.984375 -0.0976562 2.796875 -0.296875 C 2.617188 -0.503906 2.53125 -0.742188 2.53125 -1.015625 C 2.5625 -2.117188 2.609375 -4.078125 2.671875 -6.890625 C 2.742188 -9.703125 2.78125 -13.300781 2.78125 -17.6875 C 2.78125 -22.09375 2.742188 -25.691406 2.671875 -28.484375 C 2.609375 -31.285156 2.5625 -33.238281 2.53125 -34.34375 C 2.53125 -34.613281 2.617188 -34.847656 2.796875 -35.046875 C 2.984375 -35.253906 3.226562 -35.359375 3.53125 -35.359375 L 14.5 -35.359375 C 16.144531 -35.359375 17.707031 -35.207031 19.1875 -34.90625 C 20.675781 -34.601562 21.992188 -34.0625 23.140625 -33.28125 C 24.285156 -32.507812 25.1875 -31.429688 25.84375 -30.046875 C 26.5 -28.671875 26.828125 -26.90625 26.828125 -24.75 C 26.828125 -22.757812 26.378906 -21.113281 25.484375 -19.8125 C 24.585938 -18.519531 23.4375 -17.503906 22.03125 -16.765625 C 21.894531 -16.703125 21.828125 -16.585938 21.828125 -16.421875 C 21.828125 -16.253906 21.910156 -16.117188 22.078125 -16.015625 C 23.359375 -15.410156 24.414062 -14.523438 25.25 -13.359375 C 26.09375 -12.203125 26.515625 -10.679688 26.515625 -8.796875 C 26.515625 -6.972656 26.566406 -5.410156 26.671875 -4.109375 C 26.773438 -2.816406 26.875 -1.816406 26.96875 -1.109375 C 27.007812 -0.804688 26.925781 -0.546875 26.71875 -0.328125 C 26.519531 -0.109375 26.269531 0 25.96875 0 Z M 14.59375 -30 L 11.265625 -30 C 10.992188 -30 10.753906 -29.90625 10.546875 -29.71875 C 10.347656 -29.539062 10.25 -29.316406 10.25 -29.046875 C 10.25 -27.835938 10.234375 -26.484375 10.203125 -24.984375 C 10.171875 -23.484375 10.15625 -21.820312 10.15625 -20 C 10.15625 -19.695312 10.253906 -19.453125 10.453125 -19.265625 C 10.660156 -19.085938 10.894531 -19 11.15625 -19 L 14.59375 -19 C 15.707031 -19 16.578125 -19.316406 17.203125 -19.953125 C 17.828125 -20.585938 18.253906 -21.351562 18.484375 -22.25 C 18.722656 -23.144531 18.84375 -23.976562 18.84375 -24.75 C 18.84375 -26.09375 18.597656 -27.144531 18.109375 -27.90625 C 17.617188 -28.664062 17.046875 -29.203125 16.390625 -29.515625 C 15.734375 -29.835938 15.132812 -30 14.59375 -30 Z M 14.59375 -30 "/></g></g></g><g fill="#ffffff" fill-opacity="1"><g transform="translate(100.462828, 39.682845)"><g><path d="M 37.640625 -35.359375 C 37.898438 -35.359375 38.128906 -35.253906 38.328125 -35.046875 C 38.535156 -34.847656 38.640625 -34.613281 38.640625 -34.34375 C 38.609375 -33.238281 38.554688 -31.285156 38.484375 -28.484375 C 38.421875 -25.691406 38.390625 -22.09375 38.390625 -17.6875 C 38.390625 -13.300781 38.421875 -9.703125 38.484375 -6.890625 C 38.554688 -4.078125 38.609375 -2.117188 38.640625 -1.015625 C 38.640625 -0.742188 38.535156 -0.503906 38.328125 -0.296875 C 38.128906 -0.0976562 37.898438 0 37.640625 0 L 31.71875 0 C 31.445312 0 31.210938 -0.0976562 31.015625 -0.296875 C 30.816406 -0.503906 30.734375 -0.742188 30.765625 -1.015625 C 30.796875 -2.117188 30.84375 -4.078125 30.90625 -6.890625 C 30.976562 -9.703125 31.015625 -13.300781 31.015625 -17.6875 C 31.015625 -19.800781 31.003906 -21.722656 30.984375 -23.453125 C 30.972656 -25.191406 30.953125 -26.753906 30.921875 -28.140625 C 30.921875 -28.410156 30.789062 -28.550781 30.53125 -28.5625 C 30.28125 -28.582031 30.125 -28.457031 30.0625 -28.1875 C 29.820312 -26.84375 29.550781 -25.285156 29.25 -23.515625 C 28.945312 -21.742188 28.625 -19.800781 28.28125 -17.6875 C 27.582031 -13.207031 27.03125 -9.539062 26.625 -6.6875 C 26.21875 -3.84375 25.960938 -1.898438 25.859375 -0.859375 C 25.765625 -0.285156 25.429688 0 24.859375 0 L 16.3125 0 C 15.707031 0 15.375 -0.285156 15.3125 -0.859375 C 15.175781 -1.898438 14.910156 -3.84375 14.515625 -6.6875 C 14.128906 -9.539062 13.566406 -13.207031 12.828125 -17.6875 C 12.492188 -19.800781 12.175781 -21.742188 11.875 -23.515625 C 11.570312 -25.285156 11.300781 -26.84375 11.0625 -28.1875 C 11.03125 -28.457031 10.882812 -28.582031 10.625 -28.5625 C 10.375 -28.550781 10.25 -28.410156 10.25 -28.140625 C 10.21875 -26.753906 10.191406 -25.191406 10.171875 -23.453125 C 10.160156 -21.722656 10.15625 -19.800781 10.15625 -17.6875 C 10.15625 -13.300781 10.1875 -9.703125 10.25 -6.890625 C 10.320312 -4.078125 10.375 -2.117188 10.40625 -1.015625 C 10.40625 -0.742188 10.3125 -0.503906 10.125 -0.296875 C 9.9375 -0.0976562 9.691406 0 9.390625 0 L 3.53125 0 C 3.226562 0 2.984375 -0.0976562 2.796875 -0.296875 C 2.617188 -0.503906 2.53125 -0.742188 2.53125 -1.015625 C 2.5625 -2.117188 2.609375 -4.078125 2.671875 -6.890625 C 2.742188 -9.703125 2.78125 -13.300781 2.78125 -17.6875 C 2.78125 -22.09375 2.742188 -25.691406 2.671875 -28.484375 C 2.609375 -31.285156 2.5625 -33.238281 2.53125 -34.34375 C 2.53125 -34.613281 2.617188 -34.847656 2.796875 -35.046875 C 2.984375 -35.253906 3.226562 -35.359375 3.53125 -35.359375 L 15 -35.359375 C 15.570312 -35.359375 15.894531 -35.070312 15.96875 -34.5 C 16.101562 -33.457031 16.363281 -31.519531 16.75 -28.6875 C 17.132812 -25.863281 17.695312 -22.195312 18.4375 -17.6875 C 18.769531 -15.625 19.078125 -13.734375 19.359375 -12.015625 C 19.648438 -10.304688 19.914062 -8.773438 20.15625 -7.421875 C 20.1875 -7.191406 20.316406 -7.078125 20.546875 -7.078125 C 20.785156 -7.078125 20.925781 -7.191406 20.96875 -7.421875 C 21.238281 -8.773438 21.515625 -10.304688 21.796875 -12.015625 C 22.085938 -13.734375 22.398438 -15.625 22.734375 -17.6875 C 23.441406 -22.195312 23.992188 -25.863281 24.390625 -28.6875 C 24.796875 -31.519531 25.050781 -33.457031 25.15625 -34.5 C 25.226562 -35.070312 25.566406 -35.359375 26.171875 -35.359375 Z M 37.640625 -35.359375 "/></g></g></g><g fill="#ffffff" fill-opacity="1"><g transform="translate(138.655278, 39.682845)"><g><path d="M 27.125 -24.703125 C 27.125 -23.992188 27.109375 -23.316406 27.078125 -22.671875 C 27.046875 -22.035156 27.007812 -21.328125 26.96875 -20.546875 C 26.9375 -19.773438 26.921875 -18.820312 26.921875 -17.6875 C 26.921875 -16.539062 26.9375 -15.578125 26.96875 -14.796875 C 27.007812 -14.023438 27.046875 -13.316406 27.078125 -12.671875 C 27.109375 -12.035156 27.125 -11.363281 27.125 -10.65625 C 27.125 -8.5 26.734375 -6.585938 25.953125 -4.921875 C 25.179688 -3.253906 23.894531 -1.941406 22.09375 -0.984375 C 20.289062 -0.0234375 17.878906 0.453125 14.859375 0.453125 C 11.753906 0.453125 9.300781 -0.0820312 7.5 -1.15625 C 5.695312 -2.238281 4.414062 -3.628906 3.65625 -5.328125 C 2.90625 -7.023438 2.53125 -8.800781 2.53125 -10.65625 C 2.53125 -11.363281 2.546875 -12.035156 2.578125 -12.671875 C 2.609375 -13.316406 2.648438 -14.023438 2.703125 -14.796875 C 2.753906 -15.578125 2.78125 -16.539062 2.78125 -17.6875 C 2.78125 -18.820312 2.753906 -19.773438 2.703125 -20.546875 C 2.648438 -21.328125 2.609375 -22.035156 2.578125 -22.671875 C 2.546875 -23.316406 2.53125 -23.992188 2.53125 -24.703125 C 2.53125 -26.859375 2.925781 -28.769531 3.71875 -30.4375 C 4.507812 -32.101562 5.796875 -33.414062 7.578125 -34.375 C 9.359375 -35.332031 11.785156 -35.8125 14.859375 -35.8125 C 17.921875 -35.8125 20.351562 -35.269531 22.15625 -34.1875 C 23.957031 -33.113281 25.234375 -31.726562 25.984375 -30.03125 C 26.742188 -28.332031 27.125 -26.554688 27.125 -24.703125 Z M 14.75 -4.90625 C 16.0625 -4.90625 17.035156 -5.207031 17.671875 -5.8125 C 18.316406 -6.414062 18.734375 -7.160156 18.921875 -8.046875 C 19.109375 -8.941406 19.203125 -9.8125 19.203125 -10.65625 L 19.203125 -24.703125 C 19.203125 -25.003906 19.164062 -25.46875 19.09375 -26.09375 C 19.03125 -26.71875 18.867188 -27.363281 18.609375 -28.03125 C 18.359375 -28.707031 17.945312 -29.28125 17.375 -29.75 C 16.800781 -30.226562 15.992188 -30.46875 14.953125 -30.46875 C 13.609375 -30.46875 12.613281 -30.160156 11.96875 -29.546875 C 11.332031 -28.941406 10.925781 -28.191406 10.75 -27.296875 C 10.582031 -26.410156 10.5 -25.546875 10.5 -24.703125 L 10.5 -10.65625 C 10.5 -10.351562 10.523438 -9.890625 10.578125 -9.265625 C 10.628906 -8.640625 10.78125 -7.988281 11.03125 -7.3125 C 11.289062 -6.644531 11.710938 -6.078125 12.296875 -5.609375 C 12.890625 -5.140625 13.707031 -4.90625 14.75 -4.90625 Z M 14.75 -4.90625 "/></g></g></g><g fill="#ffffff" fill-opacity="1"><g transform="translate(165.379728, 39.682845)"><g><path d="M 37.640625 -35.359375 C 37.898438 -35.359375 38.128906 -35.253906 38.328125 -35.046875 C 38.535156 -34.847656 38.640625 -34.613281 38.640625 -34.34375 C 38.609375 -33.238281 38.554688 -31.285156 38.484375 -28.484375 C 38.421875 -25.691406 38.390625 -22.09375 38.390625 -17.6875 C 38.390625 -13.300781 38.421875 -9.703125 38.484375 -6.890625 C 38.554688 -4.078125 38.609375 -2.117188 38.640625 -1.015625 C 38.640625 -0.742188 38.535156 -0.503906 38.328125 -0.296875 C 38.128906 -0.0976562 37.898438 0 37.640625 0 L 31.71875 0 C 31.445312 0 31.210938 -0.0976562 31.015625 -0.296875 C 30.816406 -0.503906 30.734375 -0.742188 30.765625 -1.015625 C 30.796875 -2.117188 30.84375 -4.078125 30.90625 -6.890625 C 30.976562 -9.703125 31.015625 -13.300781 31.015625 -17.6875 C 31.015625 -19.800781 31.003906 -21.722656 30.984375 -23.453125 C 30.972656 -25.191406 30.953125 -26.753906 30.921875 -28.140625 C 30.921875 -28.410156 30.789062 -28.550781 30.53125 -28.5625 C 30.28125 -28.582031 30.125 -28.457031 30.0625 -28.1875 C 29.820312 -26.84375 29.550781 -25.285156 29.25 -23.515625 C 28.945312 -21.742188 28.625 -19.800781 28.28125 -17.6875 C 27.582031 -13.207031 27.03125 -9.539062 26.625 -6.6875 C 26.21875 -3.84375 25.960938 -1.898438 25.859375 -0.859375 C 25.765625 -0.285156 25.429688 0 24.859375 0 L 16.3125 0 C 15.707031 0 15.375 -0.285156 15.3125 -0.859375 C 15.175781 -1.898438 14.910156 -3.84375 14.515625 -6.6875 C 14.128906 -9.539062 13.566406 -13.207031 12.828125 -17.6875 C 12.492188 -19.800781 12.175781 -21.742188 11.875 -23.515625 C 11.570312 -25.285156 11.300781 -26.84375 11.0625 -28.1875 C 11.03125 -28.457031 10.882812 -28.582031 10.625 -28.5625 C 10.375 -28.550781 10.25 -28.410156 10.25 -28.140625 C 10.21875 -26.753906 10.191406 -25.191406 10.171875 -23.453125 C 10.160156 -21.722656 10.15625 -19.800781 10.15625 -17.6875 C 10.15625 -13.300781 10.1875 -9.703125 10.25 -6.890625 C 10.320312 -4.078125 10.375 -2.117188 10.40625 -1.015625 C 10.40625 -0.742188 10.3125 -0.503906 10.125 -0.296875 C 9.9375 -0.0976562 9.691406 0 9.390625 0 L 3.53125 0 C 3.226562 0 2.984375 -0.0976562 2.796875 -0.296875 C 2.617188 -0.503906 2.53125 -0.742188 2.53125 -1.015625 C 2.5625 -2.117188 2.609375 -4.078125 2.671875 -6.890625 C 2.742188 -9.703125 2.78125 -13.300781 2.78125 -17.6875 C 2.78125 -22.09375 2.742188 -25.691406 2.671875 -28.484375 C 2.609375 -31.285156 2.5625 -33.238281 2.53125 -34.34375 C 2.53125 -34.613281 2.617188 -34.847656 2.796875 -35.046875 C 2.984375 -35.253906 3.226562 -35.359375 3.53125 -35.359375 L 15 -35.359375 C 15.570312 -35.359375 15.894531 -35.070312 15.96875 -34.5 C 16.101562 -33.457031 16.363281 -31.519531 16.75 -28.6875 C 17.132812 -25.863281 17.695312 -22.195312 18.4375 -17.6875 C 18.769531 -15.625 19.078125 -13.734375 19.359375 -12.015625 C 19.648438 -10.304688 19.914062 -8.773438 20.15625 -7.421875 C 20.1875 -7.191406 20.316406 -7.078125 20.546875 -7.078125 C 20.785156 -7.078125 20.925781 -7.191406 20.96875 -7.421875 C 21.238281 -8.773438 21.515625 -10.304688 21.796875 -12.015625 C 22.085938 -13.734375 22.398438 -15.625 22.734375 -17.6875 C 23.441406 -22.195312 23.992188 -25.863281 24.390625 -28.6875 C 24.796875 -31.519531 25.050781 -33.457031 25.15625 -34.5 C 25.226562 -35.070312 25.566406 -35.359375 26.171875 -35.359375 Z M 37.640625 -35.359375 "/></g></g></g><g fill="#ffffff" fill-opacity="1"><g transform="translate(203.572178, 39.682845)"><g><path d="M 10.5 -25.609375 C 10.5 -24.566406 10.90625 -23.734375 11.71875 -23.109375 C 12.53125 -22.484375 13.582031 -21.941406 14.875 -21.484375 C 16.175781 -21.035156 17.550781 -20.554688 19 -20.046875 C 20.445312 -19.546875 21.816406 -18.898438 23.109375 -18.109375 C 24.410156 -17.316406 25.460938 -16.253906 26.265625 -14.921875 C 27.078125 -13.597656 27.484375 -11.875 27.484375 -9.75 C 27.484375 -7.59375 27.09375 -5.75 26.3125 -4.21875 C 25.539062 -2.6875 24.253906 -1.515625 22.453125 -0.703125 C 20.648438 0.0976562 18.234375 0.5 15.203125 0.5 C 12.304688 0.5 9.945312 0.03125 8.125 -0.90625 C 6.3125 -1.851562 4.957031 -3.09375 4.0625 -4.625 C 3.175781 -6.15625 2.664062 -7.78125 2.53125 -9.5 C 2.488281 -9.769531 2.566406 -10.015625 2.765625 -10.234375 C 2.972656 -10.453125 3.226562 -10.5625 3.53125 -10.5625 L 9.5 -10.5625 C 10.101562 -10.5625 10.421875 -10.257812 10.453125 -9.65625 C 10.523438 -9.039062 10.703125 -8.363281 10.984375 -7.625 C 11.273438 -6.882812 11.75 -6.234375 12.40625 -5.671875 C 13.0625 -5.117188 13.960938 -4.84375 15.109375 -4.84375 C 16.453125 -4.84375 17.4375 -5.070312 18.0625 -5.53125 C 18.6875 -5.988281 19.085938 -6.59375 19.265625 -7.34375 C 19.453125 -8.101562 19.546875 -8.90625 19.546875 -9.75 C 19.546875 -10.820312 19.132812 -11.675781 18.3125 -12.3125 C 17.488281 -12.957031 16.425781 -13.507812 15.125 -13.96875 C 13.832031 -14.425781 12.460938 -14.90625 11.015625 -15.40625 C 9.566406 -15.914062 8.203125 -16.566406 6.921875 -17.359375 C 5.640625 -18.148438 4.585938 -19.203125 3.765625 -20.515625 C 2.941406 -21.828125 2.53125 -23.523438 2.53125 -25.609375 C 2.53125 -27.765625 2.925781 -29.609375 3.71875 -31.140625 C 4.507812 -32.671875 5.796875 -33.835938 7.578125 -34.640625 C 9.359375 -35.453125 11.785156 -35.859375 14.859375 -35.859375 C 17.710938 -35.859375 20.015625 -35.382812 21.765625 -34.4375 C 23.523438 -33.5 24.820312 -32.265625 25.65625 -30.734375 C 26.5 -29.203125 26.988281 -27.578125 27.125 -25.859375 C 27.125 -25.585938 27.03125 -25.34375 26.84375 -25.125 C 26.664062 -24.90625 26.421875 -24.796875 26.109375 -24.796875 L 20.15625 -24.796875 C 19.550781 -24.796875 19.210938 -25.101562 19.140625 -25.71875 C 19.109375 -26.320312 18.984375 -26.992188 18.765625 -27.734375 C 18.546875 -28.472656 18.140625 -29.117188 17.546875 -29.671875 C 16.960938 -30.234375 16.097656 -30.515625 14.953125 -30.515625 C 13.609375 -30.515625 12.613281 -30.285156 11.96875 -29.828125 C 11.332031 -29.367188 10.925781 -28.757812 10.75 -28 C 10.582031 -27.25 10.5 -26.453125 10.5 -25.609375 Z M 10.5 -25.609375 "/></g></g></g><g fill="#ffffff" fill-opacity="1"><g transform="translate(230.650264, 39.682845)"><g><path d="M 20.15625 0 C 19.75 0 19.460938 -0.1875 19.296875 -0.5625 L 10.96875 -16.515625 C 10.863281 -16.722656 10.703125 -16.800781 10.484375 -16.75 C 10.265625 -16.695312 10.15625 -16.550781 10.15625 -16.3125 C 10.15625 -12.3125 10.1875 -9.019531 10.25 -6.4375 C 10.320312 -3.863281 10.375 -2.054688 10.40625 -1.015625 C 10.40625 -0.742188 10.3125 -0.503906 10.125 -0.296875 C 9.9375 -0.0976562 9.691406 0 9.390625 0 L 3.53125 0 C 3.226562 0 2.984375 -0.0976562 2.796875 -0.296875 C 2.617188 -0.503906 2.53125 -0.742188 2.53125 -1.015625 C 2.5625 -2.117188 2.609375 -4.078125 2.671875 -6.890625 C 2.742188 -9.703125 2.78125 -13.300781 2.78125 -17.6875 C 2.78125 -22.09375 2.742188 -25.691406 2.671875 -28.484375 C 2.609375 -31.285156 2.5625 -33.238281 2.53125 -34.34375 C 2.53125 -34.613281 2.617188 -34.847656 2.796875 -35.046875 C 2.984375 -35.253906 3.226562 -35.359375 3.53125 -35.359375 L 9.390625 -35.359375 C 9.691406 -35.359375 9.9375 -35.253906 10.125 -35.046875 C 10.3125 -34.847656 10.40625 -34.613281 10.40625 -34.34375 C 10.375 -33.332031 10.332031 -31.65625 10.28125 -29.3125 C 10.226562 -26.976562 10.1875 -24.007812 10.15625 -20.40625 C 10.15625 -20.207031 10.265625 -20.070312 10.484375 -20 C 10.703125 -19.9375 10.863281 -20.003906 10.96875 -20.203125 L 18.59375 -34.8125 C 18.757812 -35.175781 19.046875 -35.359375 19.453125 -35.359375 L 26.578125 -35.359375 C 26.972656 -35.359375 27.265625 -35.179688 27.453125 -34.828125 C 27.640625 -34.472656 27.613281 -34.128906 27.375 -33.796875 C 26.5 -32.617188 25.269531 -30.800781 23.6875 -28.34375 C 22.101562 -25.882812 20.351562 -22.816406 18.4375 -19.140625 C 18.132812 -18.609375 18.117188 -18.085938 18.390625 -17.578125 C 20.503906 -13.535156 22.425781 -10.164062 24.15625 -7.46875 C 25.894531 -4.78125 27.207031 -2.8125 28.09375 -1.5625 C 28.320312 -1.226562 28.34375 -0.882812 28.15625 -0.53125 C 27.976562 -0.175781 27.6875 0 27.28125 0 Z M 20.15625 0 "/></g></g></g><g fill="#ffffff" fill-opacity="1"><g transform="translate(258.233557, 39.682845)"><g><path d="M 10.40625 -1.015625 C 10.40625 -0.742188 10.3125 -0.503906 10.125 -0.296875 C 9.9375 -0.0976562 9.691406 0 9.390625 0 L 3.53125 0 C 3.226562 0 2.984375 -0.0976562 2.796875 -0.296875 C 2.617188 -0.503906 2.53125 -0.742188 2.53125 -1.015625 C 2.5625 -2.117188 2.609375 -4.078125 2.671875 -6.890625 C 2.742188 -9.703125 2.78125 -13.300781 2.78125 -17.6875 C 2.78125 -22.09375 2.742188 -25.691406 2.671875 -28.484375 C 2.609375 -31.285156 2.5625 -33.238281 2.53125 -34.34375 C 2.53125 -34.613281 2.617188 -34.847656 2.796875 -35.046875 C 2.984375 -35.253906 3.226562 -35.359375 3.53125 -35.359375 L 9.390625 -35.359375 C 9.691406 -35.359375 9.9375 -35.253906 10.125 -35.046875 C 10.3125 -34.847656 10.40625 -34.613281 10.40625 -34.34375 C 10.375 -33.238281 10.320312 -31.285156 10.25 -28.484375 C 10.1875 -25.691406 10.15625 -22.09375 10.15625 -17.6875 C 10.15625 -13.300781 10.1875 -9.703125 10.25 -6.890625 C 10.320312 -4.078125 10.375 -2.117188 10.40625 -1.015625 Z M 10.40625 -1.015625 "/></g></g></g></g></g><path fill="#ffffff" d="M 303.960938 36.710938 C 300.328125 37.636719 296.4375 39.292969 293.90625 41.433594 C 291.171875 43.753906 290.015625 46.003906 289.808594 47.941406 C 289.589844 49.976562 290.394531 51.707031 291.625 52.914062 C 296.46875 57.671875 304.574219 57.648438 311.136719 54.160156 C 315.191406 52.003906 318.363281 49.960938 320.832031 48.0625 C 320.136719 49.941406 319.117188 51.816406 317.710938 53.664062 C 312.132812 61.007812 304.320312 64.753906 296.964844 66.621094 C 285.867188 69.433594 275.785156 67.972656 275.785156 67.972656 C 275.433594 67.921875 275.105469 68.164062 275.054688 68.519531 C 275.003906 68.871094 275.25 69.199219 275.601562 69.25 C 275.601562 69.25 285.921875 70.753906 297.28125 67.871094 C 304.894531 65.941406 312.964844 62.042969 318.738281 54.445312 C 320.710938 51.851562 321.96875 49.203125 322.667969 46.570312 C 324.070312 45.355469 325.179688 44.210938 326.046875 43.148438 C 327.195312 41.738281 327.921875 40.457031 328.347656 39.339844 C 328.429688 39.304688 328.515625 39.269531 328.601562 39.230469 C 330.554688 38.351562 331.433594 36.339844 331.855469 33.765625 C 332.425781 30.304688 332.191406 25.789062 333.4375 22.195312 C 335.398438 16.542969 340.058594 14.363281 343.398438 15.117188 C 343.746094 15.195312 344.089844 14.976562 344.167969 14.628906 C 344.246094 14.28125 344.027344 13.9375 343.683594 13.859375 C 339.878906 12.996094 334.453125 15.328125 332.21875 21.773438 C 330.949219 25.433594 331.160156 30.03125 330.582031 33.558594 C 330.300781 35.292969 329.84375 36.757812 328.792969 37.613281 C 329.027344 35.757812 328.339844 34.519531 327.519531 33.984375 C 327.082031 33.699219 326.597656 33.589844 326.132812 33.660156 C 324.222656 33.933594 323.636719 35.84375 324.210938 37.460938 C 324.542969 38.394531 325.257812 39.203125 326.265625 39.484375 C 326.445312 39.535156 326.640625 39.570312 326.839844 39.582031 C 326.441406 40.417969 325.859375 41.335938 325.042969 42.335938 C 324.503906 42.996094 323.867188 43.691406 323.117188 44.414062 C 323.839844 39.726562 322.902344 35.152344 321.183594 31.078125 C 318.261719 24.160156 313.070312 18.722656 310.023438 16.734375 C 305.339844 13.679688 301.441406 12.402344 298.511719 12.386719 C 296.417969 12.375 294.789062 13 293.664062 14.070312 C 292.527344 15.148438 291.882812 16.691406 291.824219 18.558594 C 291.738281 21.1875 292.820312 24.503906 295.28125 28.019531 C 297.652344 31.414062 300.894531 34.488281 303.960938 36.710938 Z M 321.507812 45.867188 C 322.726562 40.855469 321.824219 35.914062 319.996094 31.582031 C 317.195312 24.949219 312.238281 19.722656 309.316406 17.816406 C 304.910156 14.941406 301.261719 13.691406 298.503906 13.675781 C 296.804688 13.667969 295.46875 14.136719 294.550781 15.007812 C 293.644531 15.867188 293.164062 17.109375 293.113281 18.601562 C 293.035156 21.019531 294.078125 24.050781 296.339844 27.28125 C 298.871094 30.90625 302.429688 34.171875 305.628906 36.328125 C 307.285156 36 308.832031 35.839844 310.09375 35.875 C 311.328125 35.910156 312.308594 36.136719 312.921875 36.527344 C 313.472656 36.875 313.777344 37.351562 313.824219 37.929688 C 313.890625 38.753906 313.667969 39.332031 313.285156 39.714844 C 312.761719 40.242188 311.832031 40.429688 310.605469 40.160156 C 309.21875 39.859375 307.375 38.980469 305.382812 37.6875 C 301.644531 38.488281 297.398438 40.167969 294.742188 42.417969 C 292.34375 44.449219 291.273438 46.382812 291.089844 48.082031 C 290.917969 49.683594 291.558594 51.042969 292.527344 51.992188 C 296.996094 56.382812 304.476562 56.238281 310.53125 53.019531 C 315.371094 50.449219 318.929688 48.042969 321.507812 45.867188 Z M 307.257812 37.351562 C 308.628906 38.144531 309.878906 38.683594 310.878906 38.902344 C 311.273438 38.988281 311.621094 39.019531 311.910156 38.984375 C 312.101562 38.960938 312.261719 38.914062 312.371094 38.804688 C 312.535156 38.640625 312.566406 38.382812 312.535156 38.035156 C 312.515625 37.78125 312.304688 37.628906 312.015625 37.503906 C 311.539062 37.289062 310.863281 37.1875 310.058594 37.164062 C 309.234375 37.140625 308.285156 37.207031 307.257812 37.351562 Z M 327.339844 38.277344 C 327.414062 38.019531 327.464844 37.777344 327.5 37.539062 C 327.660156 36.449219 327.425781 35.644531 326.992188 35.210938 C 326.792969 35.011719 326.550781 34.902344 326.316406 34.9375 C 325.527344 35.050781 325.242188 35.742188 325.296875 36.433594 C 325.351562 37.128906 325.730469 37.859375 326.398438 38.164062 C 326.671875 38.285156 326.984375 38.328125 327.339844 38.277344 Z M 327.339844 38.277344 " fill-opacity="1" fill-rule="evenodd"/><g transform="matrix(1, 0, 0, 1, 322, 38)"><g clip-path="url(#0af50b0a38)"><g fill="#ffffff" fill-opacity="1"><g transform="translate(0.797745, 19.143212)"><g><path d="M 13.21875 0 L 10.34375 -6.875 C 9.257812 -6.769531 8.367188 -6.546875 7.671875 -6.203125 C 6.972656 -5.867188 6.40625 -5.460938 5.96875 -4.984375 C 5.539062 -4.503906 5.195312 -4 4.9375 -3.46875 C 4.675781 -2.945312 4.441406 -2.457031 4.234375 -2 C 3.992188 -1.375 3.734375 -0.851562 3.453125 -0.4375 C 3.179688 -0.03125 2.757812 0.164062 2.1875 0.15625 C 2.113281 0.132812 2.046875 0.113281 1.984375 0.09375 C 1.929688 0.0820312 1.863281 0.0390625 1.78125 -0.03125 C 1.082031 -0.332031 0.800781 -1.066406 0.9375 -2.234375 C 1.007812 -2.785156 1.132812 -3.410156 1.3125 -4.109375 C 1.488281 -4.816406 1.726562 -5.578125 2.03125 -6.390625 C 2.488281 -7.609375 3.023438 -8.894531 3.640625 -10.25 C 4.253906 -11.613281 4.90625 -12.957031 5.59375 -14.28125 C 6.28125 -15.613281 6.941406 -16.820312 7.578125 -17.90625 L 7.765625 -17.90625 L 15.34375 0 Z M 10.265625 -7.046875 L 6.546875 -15.71875 C 5.765625 -14.226562 4.976562 -12.660156 4.1875 -11.015625 C 3.40625 -9.367188 2.742188 -7.8125 2.203125 -6.34375 C 1.898438 -5.53125 1.660156 -4.773438 1.484375 -4.078125 C 1.304688 -3.390625 1.179688 -2.773438 1.109375 -2.234375 C 1.097656 -1.710938 1.140625 -1.269531 1.234375 -0.90625 C 1.335938 -0.539062 1.539062 -0.304688 1.84375 -0.203125 C 1.9375 -0.179688 2.003906 -0.160156 2.046875 -0.140625 C 2.085938 -0.128906 2.140625 -0.109375 2.203125 -0.078125 C 2.710938 -0.046875 3.09375 -0.222656 3.34375 -0.609375 C 3.601562 -0.992188 3.832031 -1.472656 4.03125 -2.046875 C 4.238281 -2.523438 4.472656 -3.03125 4.734375 -3.5625 C 5.003906 -4.09375 5.363281 -4.601562 5.8125 -5.09375 C 6.257812 -5.582031 6.835938 -6.003906 7.546875 -6.359375 C 8.265625 -6.710938 9.171875 -6.941406 10.265625 -7.046875 Z M 10.265625 -7.046875 "/></g></g></g></g></g><g transform="matrix(1, 0, 0, 1, 335, 46)"><g clip-path="url(#ea8b758b57)"><g fill="#ffffff" fill-opacity="1"><g transform="translate(1.35605, 16.4505)"><g><path d="M 5.625 0 L 0.75 0 L 0.75 -15.09375 L 5.625 -15.09375 C 6.644531 -15.09375 7.601562 -14.894531 8.5 -14.5 C 9.40625 -14.113281 10.203125 -13.570312 10.890625 -12.875 C 11.578125 -12.1875 12.117188 -11.382812 12.515625 -10.46875 C 12.910156 -9.5625 13.109375 -8.582031 13.109375 -7.53125 C 13.109375 -6.488281 12.910156 -5.507812 12.515625 -4.59375 C 12.117188 -3.6875 11.578125 -2.882812 10.890625 -2.1875 C 10.203125 -1.5 9.40625 -0.960938 8.5 -0.578125 C 7.601562 -0.191406 6.644531 0 5.625 0 Z M 2.421875 -14.9375 L 2.421875 -0.171875 L 5.625 -0.171875 C 6.4375 -0.171875 7.195312 -0.359375 7.90625 -0.734375 C 8.625 -1.109375 9.253906 -1.632812 9.796875 -2.3125 C 10.335938 -2.988281 10.757812 -3.769531 11.0625 -4.65625 C 11.363281 -5.539062 11.515625 -6.5 11.515625 -7.53125 C 11.515625 -8.550781 11.363281 -9.503906 11.0625 -10.390625 C 10.757812 -11.285156 10.335938 -12.070312 9.796875 -12.75 C 9.253906 -13.4375 8.625 -13.972656 7.90625 -14.359375 C 7.195312 -14.742188 6.4375 -14.9375 5.625 -14.9375 Z M 2.421875 -14.9375 "/></g></g></g></g></g><g clip-path="url(#4550df3cfc)"><g clip-path="url(#e0a42c5a10)"><g clip-path="url(#81f31d0cd9)"><path fill="#ffffff" d="M 347.761719 40.433594 C 347.367188 40.285156 346.371094 39.984375 345.386719 40.230469 C 344.648438 40.417969 343.910156 40.894531 343.417969 41.953125 C 342.941406 42.976562 343.105469 43.832031 343.484375 44.503906 C 343.917969 45.265625 344.65625 45.773438 345.058594 46.011719 C 345.011719 46.332031 344.90625 46.714844 344.75 47.113281 C 344.582031 47.550781 344.355469 48 344.078125 48.410156 L 343.621094 49.089844 L 344.441406 49.09375 C 345.332031 49.09375 346.839844 49.445312 348.28125 50.128906 C 348.640625 50.300781 348.996094 50.492188 349.34375 50.699219 C 349.578125 50.835938 349.808594 50.976562 350.03125 51.125 C 350.320312 51.3125 350.589844 51.507812 350.851562 51.722656 C 351.128906 51.953125 351.382812 52.175781 351.613281 52.441406 C 351.496094 52.113281 351.351562 51.808594 351.160156 51.507812 C 350.972656 51.210938 350.75 50.945312 350.503906 50.6875 C 350.308594 50.484375 350.097656 50.296875 349.875 50.125 C 349.726562 50.007812 349.570312 49.902344 349.414062 49.804688 C 348.8125 49.421875 348.164062 49.125 347.535156 48.886719 C 346.683594 48.5625 345.859375 48.363281 345.179688 48.273438 C 345.332031 47.996094 345.460938 47.710938 345.566406 47.433594 C 345.808594 46.8125 345.941406 46.21875 345.957031 45.78125 L 345.96875 45.488281 L 345.703125 45.367188 C 345.703125 45.367188 344.726562 44.921875 344.238281 44.074219 C 343.96875 43.613281 343.867188 43.019531 344.191406 42.308594 C 344.542969 41.542969 345.0625 41.179688 345.59375 41.042969 C 346.328125 40.851562 347.074219 41.054688 347.414062 41.175781 C 347.371094 41.285156 347.335938 41.398438 347.308594 41.511719 C 347.066406 42.414062 347.140625 43.308594 347.558594 43.925781 C 347.285156 43.285156 347.378906 42.460938 347.738281 41.664062 C 348.027344 41.015625 348.507812 40.402344 349.136719 39.953125 C 349.476562 39.707031 349.867188 39.523438 350.292969 39.402344 C 351.125 39.167969 352.113281 39.214844 353.234375 39.746094 C 354.453125 40.316406 355.101562 41.0625 355.410156 41.816406 C 356.019531 43.300781 355.339844 44.78125 355.339844 44.78125 L 355.113281 45.269531 L 355.625 45.4375 C 355.625 45.4375 356.976562 45.863281 357.699219 46.835938 C 358.101562 47.378906 358.28125 48.105469 357.855469 49.039062 C 357.453125 49.933594 356.898438 50.304688 356.328125 50.382812 C 355.855469 50.449219 355.394531 50.332031 355.015625 50.199219 C 354.65625 50.074219 354.371094 49.929688 354.238281 49.859375 C 354.273438 49.84375 354.304688 49.820312 354.335938 49.800781 C 354.503906 49.691406 354.65625 49.558594 354.785156 49.398438 C 354.882812 49.285156 354.96875 49.167969 355.039062 49.03125 C 355.1875 48.746094 355.277344 48.433594 355.308594 48.070312 C 355.21875 48.242188 355.117188 48.378906 355.003906 48.519531 C 354.835938 48.730469 354.648438 48.886719 354.441406 49.03125 C 354.308594 49.125 354.167969 49.203125 354.027344 49.273438 C 353.929688 49.324219 353.835938 49.367188 353.738281 49.410156 C 353.488281 49.523438 353.238281 49.621094 352.96875 49.671875 C 352.535156 49.753906 352.097656 49.769531 351.664062 49.648438 C 352.066406 49.921875 352.515625 50.078125 352.992188 50.117188 C 353.160156 50.132812 353.328125 50.125 353.492188 50.101562 C 353.3125 50.339844 353.15625 50.601562 353.03125 50.886719 C 352.800781 51.410156 352.660156 51.980469 352.53125 52.585938 C 352.808594 52.054688 353.105469 51.570312 353.445312 51.132812 C 353.605469 50.925781 353.773438 50.738281 353.960938 50.570312 C 354.132812 50.683594 354.394531 50.84375 354.714844 50.980469 C 355.199219 51.1875 355.816406 51.328125 356.441406 51.253906 C 357.253906 51.160156 358.097656 50.691406 358.691406 49.425781 C 359.171875 48.398438 359.105469 47.542969 358.796875 46.847656 C 358.289062 45.710938 357.050781 45.019531 356.378906 44.710938 C 356.578125 44.042969 356.828125 42.75 356.296875 41.453125 C 355.914062 40.527344 355.136719 39.585938 353.632812 38.890625 C 352.484375 38.363281 351.445312 38.246094 350.550781 38.414062 C 350.261719 38.46875 349.984375 38.550781 349.726562 38.660156 C 349.328125 38.835938 348.964844 39.066406 348.652344 39.347656 C 348.296875 39.664062 347.996094 40.035156 347.761719 40.433594 Z M 347.761719 40.433594 " fill-opacity="1" fill-rule="evenodd"/></g></g></g></svg>