<svg xmlns="http://www.w3.org/2000/svg" xmlns:xlink="http://www.w3.org/1999/xlink" width="500" zoomAndPan="magnify" viewBox="0 0 375 374.999991" height="500" preserveAspectRatio="xMidYMid meet" version="1.0"><defs><g/><clipPath id="1ff611b20b"><rect x="0" width="84" y="0" height="130"/></clipPath><clipPath id="469ee41c07"><path d="M 234 176 L 309 176 L 309 290.160156 L 234 290.160156 Z M 234 176 " clip-rule="nonzero"/></clipPath><clipPath id="9966eb507c"><rect x="0" width="75" y="0" height="115"/></clipPath><clipPath id="797aa490d7"><path d="M 270 137 L 327 137 L 327 188 L 270 188 Z M 270 137 " clip-rule="nonzero"/></clipPath><clipPath id="c695b9578e"><path d="M 282.085938 127.699219 L 336.539062 152.757812 L 316.699219 195.863281 L 262.246094 170.804688 Z M 282.085938 127.699219 " clip-rule="nonzero"/></clipPath><clipPath id="c6c7552cab"><path d="M 282.085938 127.699219 L 336.539062 152.757812 L 316.699219 195.863281 L 262.246094 170.804688 Z M 282.085938 127.699219 " clip-rule="nonzero"/></clipPath><clipPath id="20018c5539"><path d="M 282.085938 127.699219 L 336.539062 152.757812 L 316.699219 195.863281 L 262.246094 170.804688 Z M 282.085938 127.699219 " clip-rule="nonzero"/></clipPath><clipPath id="7bb8993260"><rect x="0" width="339" y="0" height="291"/></clipPath></defs><g transform="matrix(1, 0, 0, 1, 0, 36)"><g clip-path="url(#7bb8993260)"><path fill="#000000" d="M 130.484375 131.628906 C 117.421875 134.953125 103.4375 140.871094 94.347656 148.539062 C 84.511719 156.839844 80.367188 164.890625 79.617188 171.824219 C 78.828125 179.105469 81.71875 185.289062 86.136719 189.613281 C 103.558594 206.640625 132.679688 206.554688 156.277344 194.066406 C 170.839844 186.363281 182.25 179.046875 191.121094 172.25 C 188.613281 178.976562 184.945312 185.691406 179.898438 192.304688 C 159.84375 218.574219 131.773438 231.988281 105.335938 238.664062 C 65.457031 248.730469 29.222656 243.5 29.222656 243.5 C 27.953125 243.316406 26.777344 244.191406 26.59375 245.449219 C 26.410156 246.710938 27.289062 247.882812 28.554688 248.066406 C 28.554688 248.066406 65.652344 253.445312 106.472656 243.136719 C 133.835938 236.230469 162.839844 222.285156 183.589844 195.097656 C 190.679688 185.8125 195.203125 176.332031 197.710938 166.910156 C 202.757812 162.570312 206.742188 158.476562 209.851562 154.675781 C 213.984375 149.625 216.601562 145.042969 218.121094 141.039062 C 218.425781 140.921875 218.734375 140.796875 219.046875 140.652344 C 226.054688 137.511719 229.222656 130.3125 230.738281 121.097656 C 232.777344 108.710938 231.941406 92.550781 236.417969 79.691406 C 243.464844 59.46875 260.222656 51.660156 272.214844 54.359375 C 273.464844 54.640625 274.707031 53.859375 274.988281 52.617188 C 275.273438 51.375 274.488281 50.136719 273.238281 49.855469 C 259.566406 46.777344 240.066406 55.121094 232.039062 78.175781 C 227.476562 91.28125 228.242188 107.730469 226.164062 120.351562 C 225.140625 126.554688 223.503906 131.808594 219.722656 134.863281 C 220.574219 128.230469 218.097656 123.792969 215.148438 121.875 C 213.585938 120.855469 211.839844 120.472656 210.160156 120.710938 C 203.296875 121.699219 201.191406 128.53125 203.253906 134.316406 C 204.449219 137.664062 207.027344 140.546875 210.640625 141.554688 C 211.296875 141.738281 211.984375 141.859375 212.710938 141.910156 C 211.28125 144.894531 209.179688 148.183594 206.257812 151.757812 C 204.316406 154.128906 202.023438 156.613281 199.328125 159.203125 C 201.925781 142.429688 198.558594 126.050781 192.378906 111.480469 C 181.878906 86.71875 163.21875 67.265625 152.269531 60.15625 C 135.433594 49.21875 121.421875 44.644531 110.890625 44.59375 C 103.375 44.554688 97.519531 46.789062 93.46875 50.617188 C 89.382812 54.472656 87.078125 59.988281 86.859375 66.683594 C 86.558594 76.089844 90.441406 87.953125 99.28125 100.539062 C 107.8125 112.679688 119.457031 123.679688 130.484375 131.628906 Z M 193.542969 164.394531 C 197.929688 146.460938 194.679688 128.78125 188.105469 113.277344 C 178.042969 89.542969 160.230469 70.839844 149.734375 64.023438 C 133.894531 53.734375 120.777344 49.257812 110.867188 49.210938 C 104.757812 49.179688 99.953125 50.855469 96.660156 53.964844 C 93.398438 57.042969 91.667969 61.492188 91.496094 66.832031 C 91.214844 75.476562 94.953125 86.324219 103.082031 97.890625 C 112.195312 110.859375 124.976562 122.546875 136.476562 130.269531 C 142.433594 129.089844 147.984375 128.519531 152.519531 128.640625 C 156.957031 128.761719 160.488281 129.582031 162.691406 130.972656 C 164.664062 132.222656 165.757812 133.921875 165.925781 136 C 166.164062 138.949219 165.363281 141.019531 163.992188 142.386719 C 162.105469 144.265625 158.765625 144.941406 154.359375 143.984375 C 149.382812 142.902344 142.757812 139.761719 135.597656 135.125 C 122.160156 138 106.894531 144.007812 97.347656 152.0625 C 88.730469 159.332031 84.882812 166.246094 84.226562 172.320312 C 83.609375 178.050781 85.90625 182.914062 89.386719 186.316406 C 105.453125 202.023438 132.335938 201.507812 154.101562 189.992188 C 171.488281 180.792969 184.277344 172.1875 193.542969 164.394531 Z M 142.332031 133.925781 C 147.257812 136.757812 151.75 138.691406 155.347656 139.472656 C 156.757812 139.777344 158.003906 139.898438 159.050781 139.773438 C 159.738281 139.6875 160.316406 139.515625 160.710938 139.121094 C 161.292969 138.546875 161.402344 137.613281 161.304688 136.371094 C 161.230469 135.464844 160.46875 134.925781 159.433594 134.464844 C 157.710938 133.699219 155.289062 133.335938 152.390625 133.257812 C 149.433594 133.179688 146.015625 133.410156 142.332031 133.925781 Z M 214.507812 137.242188 C 214.765625 136.324219 214.953125 135.445312 215.078125 134.605469 C 215.652344 130.695312 214.820312 127.820312 213.261719 126.269531 C 212.539062 125.550781 211.675781 125.160156 210.824219 125.28125 C 207.992188 125.691406 206.96875 128.171875 207.164062 130.636719 C 207.363281 133.136719 208.726562 135.75 211.121094 136.828125 C 212.097656 137.269531 213.230469 137.425781 214.507812 137.242188 Z M 214.507812 137.242188 " fill-opacity="1" fill-rule="evenodd"/><g transform="matrix(1, 0, 0, 1, 185, 145)"><g clip-path="url(#1ff611b20b)"><g fill="#000000" fill-opacity="1"><g transform="translate(0.370044, 96.658434)"><g><path d="M 67.3125 0 L 52.703125 -35.015625 C 47.191406 -34.492188 42.648438 -33.367188 39.078125 -31.640625 C 35.503906 -29.921875 32.617188 -27.832031 30.421875 -25.375 C 28.222656 -22.925781 26.457031 -20.363281 25.125 -17.6875 C 23.789062 -15.019531 22.609375 -12.523438 21.578125 -10.203125 C 20.367188 -7.015625 19.050781 -4.363281 17.625 -2.25 C 16.207031 -0.144531 14.035156 0.863281 11.109375 0.78125 C 10.765625 0.6875 10.441406 0.597656 10.140625 0.515625 C 9.835938 0.429688 9.472656 0.21875 9.046875 -0.125 C 5.515625 -1.675781 4.09375 -5.425781 4.78125 -11.375 C 5.125 -14.207031 5.75 -17.410156 6.65625 -20.984375 C 7.5625 -24.566406 8.785156 -28.425781 10.328125 -32.5625 C 12.660156 -38.757812 15.394531 -45.320312 18.53125 -52.25 C 21.675781 -59.1875 24.992188 -66.035156 28.484375 -72.796875 C 31.972656 -79.554688 35.351562 -85.691406 38.625 -91.203125 L 39.53125 -91.203125 L 78.15625 0 Z M 52.328125 -35.921875 L 33.328125 -80.09375 C 29.367188 -72.519531 25.382812 -64.53125 21.375 -56.125 C 17.375 -47.726562 13.992188 -39.785156 11.234375 -32.296875 C 9.679688 -28.160156 8.453125 -24.328125 7.546875 -20.796875 C 6.648438 -17.265625 6.03125 -14.125 5.6875 -11.375 C 5.601562 -8.695312 5.816406 -6.429688 6.328125 -4.578125 C 6.847656 -2.734375 7.882812 -1.550781 9.4375 -1.03125 C 9.863281 -0.945312 10.179688 -0.859375 10.390625 -0.765625 C 10.609375 -0.679688 10.890625 -0.554688 11.234375 -0.390625 C 13.816406 -0.210938 15.753906 -1.113281 17.046875 -3.09375 C 18.335938 -5.082031 19.503906 -7.539062 20.546875 -10.46875 C 21.578125 -12.875 22.78125 -15.429688 24.15625 -18.140625 C 25.53125 -20.859375 27.359375 -23.46875 29.640625 -25.96875 C 31.929688 -28.46875 34.882812 -30.617188 38.5 -32.421875 C 42.113281 -34.234375 46.722656 -35.398438 52.328125 -35.921875 Z M 52.328125 -35.921875 "/></g></g></g></g></g><g clip-path="url(#469ee41c07)"><g transform="matrix(1, 0, 0, 1, 234, 176)"><g clip-path="url(#9966eb507c)"><g fill="#000000" fill-opacity="1"><g transform="translate(0.103897, 84.996006)"><g><path d="M 30.03125 0 L 4 0 L 4 -80.625 L 30.03125 -80.625 C 35.519531 -80.625 40.660156 -79.578125 45.453125 -77.484375 C 50.242188 -75.390625 54.484375 -72.492188 58.171875 -68.796875 C 61.867188 -65.109375 64.765625 -60.828125 66.859375 -55.953125 C 68.953125 -51.085938 70 -45.835938 70 -40.203125 C 70 -34.640625 68.953125 -29.421875 66.859375 -24.546875 C 64.765625 -19.679688 61.867188 -15.398438 58.171875 -11.703125 C 54.484375 -8.015625 50.242188 -5.140625 45.453125 -3.078125 C 40.660156 -1.023438 35.519531 0 30.03125 0 Z M 12.90625 -79.828125 L 12.90625 -0.90625 L 30.03125 -0.90625 C 34.375 -0.90625 38.445312 -1.914062 42.25 -3.9375 C 46.0625 -5.957031 49.410156 -8.773438 52.296875 -12.390625 C 55.191406 -16.003906 57.457031 -20.171875 59.09375 -24.890625 C 60.738281 -29.617188 61.5625 -34.722656 61.5625 -40.203125 C 61.5625 -45.679688 60.738281 -50.800781 59.09375 -55.5625 C 57.457031 -60.320312 55.191406 -64.523438 52.296875 -68.171875 C 49.410156 -71.828125 46.0625 -74.679688 42.25 -76.734375 C 38.445312 -78.796875 34.375 -79.828125 30.03125 -79.828125 Z M 12.90625 -79.828125 "/></g></g></g></g></g></g><g clip-path="url(#797aa490d7)"><g clip-path="url(#c695b9578e)"><g clip-path="url(#c6c7552cab)"><g clip-path="url(#20018c5539)"><path fill="#000000" d="M 286.996094 144.941406 C 285.597656 144.421875 282.09375 143.359375 278.621094 144.234375 C 276.019531 144.890625 273.414062 146.574219 271.679688 150.304688 C 270.003906 153.921875 270.570312 156.941406 271.914062 159.308594 C 273.4375 161.988281 276.046875 163.785156 277.460938 164.617188 C 277.296875 165.753906 276.917969 167.105469 276.371094 168.511719 C 275.773438 170.046875 274.976562 171.636719 274 173.078125 L 272.382812 175.476562 L 275.273438 175.488281 C 278.421875 175.484375 283.734375 176.730469 288.804688 179.132812 C 290.082031 179.738281 291.332031 180.425781 292.558594 181.148438 C 293.378906 181.632812 294.1875 182.121094 294.972656 182.644531 C 295.988281 183.3125 296.949219 183.996094 297.871094 184.757812 C 298.84375 185.5625 299.742188 186.347656 300.554688 187.292969 C 300.128906 186.128906 299.628906 185.050781 298.957031 183.996094 C 298.292969 182.949219 297.507812 182.007812 296.636719 181.097656 C 295.949219 180.382812 295.207031 179.730469 294.421875 179.117188 C 293.898438 178.710938 293.355469 178.339844 292.796875 177.988281 C 290.683594 176.644531 288.398438 175.59375 286.179688 174.75 C 283.183594 173.613281 280.269531 172.914062 277.886719 172.597656 C 278.410156 171.617188 278.867188 170.613281 279.25 169.632812 C 280.097656 167.445312 280.570312 165.355469 280.628906 163.804688 L 280.671875 162.777344 L 279.734375 162.347656 C 279.734375 162.347656 276.28125 160.78125 274.5625 157.789062 C 273.625 156.15625 273.261719 154.070312 274.40625 151.558594 C 275.640625 148.855469 277.472656 147.582031 279.347656 147.09375 C 281.941406 146.421875 284.570312 147.140625 285.761719 147.558594 C 285.617188 147.953125 285.492188 148.347656 285.386719 148.746094 C 284.539062 151.925781 284.800781 155.082031 286.269531 157.261719 C 285.304688 155.003906 285.640625 152.089844 286.902344 149.28125 C 287.929688 146.992188 289.617188 144.835938 291.839844 143.242188 C 293.042969 142.382812 294.410156 141.726562 295.917969 141.300781 C 298.84375 140.472656 302.328125 140.632812 306.285156 142.507812 C 310.582031 144.519531 312.859375 147.148438 313.949219 149.8125 C 316.089844 155.046875 313.691406 160.265625 313.691406 160.265625 L 312.894531 161.992188 L 314.703125 162.574219 C 314.703125 162.574219 319.464844 164.074219 322.007812 167.507812 C 323.425781 169.421875 324.058594 171.984375 322.558594 175.28125 C 321.136719 178.441406 319.175781 179.738281 317.164062 180.023438 C 315.511719 180.257812 313.875 179.847656 312.546875 179.382812 C 311.277344 178.9375 310.269531 178.429688 309.808594 178.183594 C 309.921875 178.117188 310.035156 178.046875 310.144531 177.972656 C 310.734375 177.582031 311.273438 177.113281 311.734375 176.558594 C 312.074219 176.15625 312.378906 175.738281 312.628906 175.257812 C 313.152344 174.242188 313.46875 173.152344 313.578125 171.875 C 313.257812 172.46875 312.902344 172.960938 312.507812 173.453125 C 311.914062 174.191406 311.246094 174.746094 310.523438 175.257812 C 310.054688 175.589844 309.5625 175.859375 309.058594 176.117188 C 308.722656 176.289062 308.382812 176.441406 308.046875 176.597656 C 307.167969 177 306.277344 177.34375 305.324219 177.523438 C 303.796875 177.8125 302.257812 177.859375 300.726562 177.4375 C 302.148438 178.398438 303.738281 178.957031 305.414062 179.089844 C 306.007812 179.140625 306.597656 179.113281 307.179688 179.035156 C 306.542969 179.878906 305.992188 180.796875 305.546875 181.808594 C 304.738281 183.648438 304.238281 185.664062 303.78125 187.792969 C 304.769531 185.929688 305.8125 184.21875 307.003906 182.675781 C 307.570312 181.941406 308.167969 181.273438 308.828125 180.683594 C 309.429688 181.089844 310.347656 181.648438 311.476562 182.132812 C 313.1875 182.863281 315.371094 183.359375 317.5625 183.097656 C 320.4375 182.757812 323.40625 181.109375 325.507812 176.640625 C 327.191406 173.019531 326.964844 170.003906 325.871094 167.550781 C 324.085938 163.542969 319.726562 161.097656 317.351562 160.019531 C 318.066406 157.65625 318.949219 153.09375 317.070312 148.527344 C 315.722656 145.257812 312.984375 141.945312 307.6875 139.492188 C 303.636719 137.632812 299.976562 137.21875 296.824219 137.8125 C 295.800781 138.003906 294.828125 138.292969 293.921875 138.6875 C 292.511719 139.304688 291.234375 140.121094 290.136719 141.109375 C 288.878906 142.234375 287.820312 143.542969 286.996094 144.941406 Z M 286.996094 144.941406 " fill-opacity="1" fill-rule="evenodd"/></g></g></g></g></g></g></svg>